<?xml version="1.0" encoding="utf-8"?>
<!-- Generator: Adobe Illustrator 16.0.0, SVG Export Plug-In . SVG Version: 6.00 Build 0)  -->
<!DOCTYPE svg PUBLIC "-//W3C//DTD SVG 1.1//EN" "http://www.w3.org/Graphics/SVG/1.1/DTD/svg11.dtd">
<svg version="1.1" id="Layer_1" xmlns="http://www.w3.org/2000/svg" xmlns:xlink="http://www.w3.org/1999/xlink" x="0px" y="0px"
	 width="84.546px" height="54.094px" viewBox="0 0 84.546 54.094" enable-background="new 0 0 84.546 54.094" xml:space="preserve">
<path fill="#15293A" d="M80.394,47.917h-4.152V1.703C76.242,0.763,75.48,0,74.541,0c-0.943,0-1.707,0.763-1.707,1.703v4.05h-0.111
	c-0.316-1.134-1.346-1.968-2.58-1.968s-2.264,0.834-2.58,1.968h-0.225c-0.318-1.134-1.346-1.968-2.578-1.968
	c-1.238,0-2.268,0.834-2.584,1.968h-0.223c-0.318-1.134-1.348-1.968-2.58-1.968c-1.236,0-2.264,0.834-2.582,1.968h-0.225
	c-0.314-1.134-1.344-1.968-2.58-1.968c-1.232,0-2.262,0.834-2.578,1.968h-12.87c-0.319-1.132-1.347-1.968-2.582-1.968
	c-1.234,0-2.262,0.836-2.58,1.968h-0.223c-0.318-1.132-1.348-1.968-2.582-1.968c-1.235,0-2.263,0.836-2.581,1.968h-0.235
	c-0.317-1.132-1.345-1.968-2.58-1.968c-1.236,0-2.263,0.836-2.583,1.968h-0.222c-0.318-1.132-1.346-1.968-2.581-1.968
	c-1.234,0-2.262,0.836-2.58,1.968h-0.223c-0.317-1.132-1.347-1.968-2.581-1.968c-1.233,0-2.262,0.836-2.58,1.968h-0.111v-4.05
	C11.713,0.763,10.95,0,10.008,0S8.304,0.763,8.304,1.703v46.214H4.152C1.86,47.917,0,50.683,0,54.094h84.547
	C84.546,50.684,82.685,47.917,80.394,47.917z M11.713,7.201h0.11c0.316,1.133,1.345,1.969,2.581,1.969s2.265-0.836,2.582-1.969
	h0.221c0.318,1.133,1.345,1.969,2.581,1.969c1.234,0,2.263-0.836,2.581-1.969h0.222c0.318,1.133,1.346,1.969,2.583,1.969
	c1.235,0,2.262-0.836,2.581-1.969h0.234c0.318,1.133,1.345,1.969,2.581,1.969c1.235,0,2.265-0.836,2.583-1.969h0.222
	c0.318,1.133,1.345,1.969,2.58,1.969c1.236,0,2.265-0.836,2.581-1.969h12.87c0.318,1.133,1.346,1.969,2.58,1.969
	c1.236,0,2.268-0.836,2.582-1.969h0.223c0.316,1.133,1.346,1.969,2.582,1.969c1.232,0,2.264-0.836,2.58-1.969h0.223
	c0.316,1.133,1.346,1.969,2.582,1.969c1.232,0,2.264-0.836,2.58-1.969h0.223c0.316,1.133,1.346,1.969,2.58,1.969
	s2.264-0.836,2.58-1.969h0.111v8.317c-0.363-1.057-1.354-1.821-2.533-1.821c-1.377,0-2.498,1.037-2.66,2.369h-0.066
	c-0.164-1.332-1.283-2.369-2.658-2.369c-1.377,0-2.496,1.037-2.66,2.369h-0.066c-0.164-1.332-1.283-2.369-2.66-2.369
	c-1.375,0-2.498,1.037-2.66,2.369h-0.064c-0.162-1.332-1.283-2.369-2.656-2.369c-1.379,0-2.5,1.037-2.66,2.369h-0.068
	c-0.164-1.332-1.283-2.369-2.658-2.369c-1.379,0-2.498,1.037-2.66,2.369h-0.066c-0.162-1.332-1.281-2.369-2.658-2.369
	c-1.375,0-2.497,1.037-2.659,2.369h-0.078c-0.163-1.332-1.282-2.369-2.658-2.369s-2.497,1.037-2.66,2.369h-0.067
	c-0.163-1.332-1.284-2.369-2.659-2.369s-2.498,1.037-2.66,2.369H16.986c-0.317-1.134-1.347-1.97-2.581-1.97
	c-0.001,0-0.002,0-0.003,0s-0.002,0-0.004,0c-1.234,0-2.263,0.834-2.582,1.97h-0.103V7.201z M72.832,47.917H11.713v-9.191h0.109
	c0.317,1.132,1.346,1.97,2.582,1.97s2.265-0.836,2.582-1.97h0.221c0.318,1.132,1.345,1.97,2.58,1.97c1.235,0,2.265-0.836,2.583-1.97
	h0.222c0.317,1.132,1.346,1.97,2.582,1.97s2.263-0.836,2.582-1.97h0.233c0.318,1.132,1.346,1.97,2.582,1.97
	c1.235,0,2.264-0.836,2.583-1.97h0.222c0.317,1.132,1.347,1.97,2.582,1.97c1.235,0,2.264-0.836,2.582-1.97h0.221
	c0.318,1.132,1.347,1.966,2.584,1.966c1.234,0,2.26-0.834,2.581-1.966h0.221c0.318,1.132,1.348,1.966,2.582,1.966
	s2.264-0.834,2.58-1.966h12.869c0.316,1.132,1.346,1.966,2.582,1.966c1.234,0,2.262-0.834,2.58-1.966h0.223
	c0.316,1.132,1.344,1.966,2.58,1.966c1.234,0,2.264-0.834,2.58-1.966h0.111L72.832,47.917L72.832,47.917z M72.832,37.277H72.72
	c-0.316-1.135-1.344-1.969-2.58-1.969c-1.234,0-2.264,0.834-2.58,1.969h-0.223c-0.318-1.135-1.346-1.969-2.58-1.969
	c-1.236,0-2.266,0.834-2.582,1.969H49.306c-0.318-1.135-1.346-1.969-2.58-1.969s-2.264,0.834-2.58,1.969h-0.223
	c-0.32-1.135-1.347-1.969-2.581-1.969c-1.237,0-2.266,0.834-2.584,1.969h-0.221c-0.319-1.134-1.347-1.969-2.582-1.969
	c-1.234,0-2.262,0.835-2.58,1.969h-0.224c-0.319-1.134-1.346-1.969-2.581-1.969s-2.263,0.835-2.581,1.969h-0.235
	c-0.317-1.134-1.346-1.969-2.581-1.969s-2.262,0.835-2.582,1.969h-0.222c-0.318-1.134-1.346-1.969-2.582-1.969
	c-1.234,0-2.261,0.835-2.579,1.969h-0.223c-0.319-1.134-1.347-1.969-2.581-1.969c-1.233,0-2.262,0.835-2.581,1.969h-0.11v-9.84
	h0.109c0.317,1.135,1.346,1.971,2.582,1.971c1.236,0,2.264-0.836,2.582-1.971h0.222c0.317,1.135,1.345,1.971,2.58,1.971
	c1.234,0,2.264-0.836,2.582-1.971h0.222c0.318,1.135,1.347,1.971,2.582,1.971c1.236,0,2.263-0.836,2.582-1.971h0.233
	c0.318,1.135,1.346,1.971,2.582,1.971c1.236,0,2.264-0.836,2.582-1.971h0.222c0.318,1.135,1.347,1.971,2.582,1.971
	c1.236,0,2.264-0.836,2.582-1.971h0.223c0.316,1.133,1.346,1.969,2.582,1.969c1.234,0,2.264-0.836,2.583-1.969h0.221
	c0.318,1.133,1.348,1.969,2.58,1.969c1.236,0,2.264-0.836,2.58-1.969h18.254c0.316,1.133,1.346,1.969,2.58,1.969
	c1.236,0,2.266-0.836,2.58-1.969h0.111v9.84H72.832z M72.832,25.988H72.72c-0.316-1.133-1.344-1.967-2.58-1.967
	c-1.234,0-2.262,0.834-2.58,1.967H49.306c-0.318-1.133-1.346-1.967-2.58-1.967s-2.264,0.834-2.58,1.967h-0.223
	c-0.32-1.133-1.349-1.967-2.581-1.967c-1.237,0-2.264,0.834-2.584,1.967h-0.221c-0.319-1.131-1.347-1.967-2.582-1.967
	c-1.234,0-2.262,0.836-2.58,1.967h-0.224c-0.319-1.131-1.346-1.967-2.581-1.967s-2.263,0.836-2.581,1.967h-0.235
	c-0.317-1.131-1.346-1.967-2.581-1.967s-2.262,0.836-2.582,1.967h-0.222c-0.318-1.131-1.347-1.967-2.582-1.967
	c-1.234,0-2.261,0.836-2.579,1.967h-0.223c-0.319-1.131-1.347-1.967-2.581-1.967c-1.235,0-2.262,0.836-2.581,1.967h-0.11v-8.475
	h0.102c0.317,1.133,1.348,1.971,2.582,1.971c0.002,0,0.003,0,0.004,0s0.002,0,0.003,0c1.236,0,2.265-0.836,2.582-1.971h13.164
	c0.426,0.924,1.354,1.569,2.441,1.569c1.086,0,2.014-0.646,2.441-1.569h0.504c0.426,0.924,1.354,1.569,2.441,1.569
	c1.085,0,2.014-0.646,2.44-1.569h0.516c0.426,0.924,1.355,1.569,2.44,1.569c1.088,0,2.016-0.646,2.441-1.569h0.502
	c0.426,0.924,1.355,1.569,2.441,1.569s2.014-0.646,2.439-1.569h0.506c0.424,0.924,1.352,1.569,2.439,1.569
	c1.084,0,2.014-0.646,2.439-1.569h0.502c0.426,0.924,1.355,1.569,2.439,1.569c1.088,0,2.018-0.646,2.441-1.569h0.504
	c0.426,0.924,1.354,1.569,2.439,1.569s2.016-0.646,2.439-1.569h0.504c0.426,0.924,1.355,1.569,2.441,1.569s2.014-0.646,2.438-1.569
	h0.094L72.832,25.988L72.832,25.988z"/>
</svg>
