<?xml version="1.0" encoding="utf-8"?>
<!-- Generator: Adobe Illustrator 16.0.0, SVG Export Plug-In . SVG Version: 6.00 Build 0)  -->
<!DOCTYPE svg PUBLIC "-//W3C//DTD SVG 1.1//EN" "http://www.w3.org/Graphics/SVG/1.1/DTD/svg11.dtd">
<svg version="1.1" id="Layer_1" xmlns="http://www.w3.org/2000/svg" xmlns:xlink="http://www.w3.org/1999/xlink" x="0px" y="0px"
	 width="85.368px" height="66.404px" viewBox="0 33.596 85.368 66.404" enable-background="new 0 33.596 85.368 66.404"
	 xml:space="preserve">
<path fill="#15293A" d="M84.102,50.253c-1.068-0.993-6.051-1.197-9.34-1.246h-0.418c-0.146,0-0.283-0.01-0.418,0
	c-0.525-0.01-0.982-0.01-1.342-0.01c-2.656,0-3.756,2.714-3.961,3.755c-0.254,1.372-1.244,4.845-1.896,7.122l-0.322-0.379v-0.02
	l-0.301-0.39c0.641-2.237,1.498-5.273,1.732-6.479c0.232-1.227,1.535-4.417,4.748-4.417c0.506,0,1.021,0,1.537,0.01
	c0.348-1.703,0.059-3.065-0.838-3.893c-0.66-0.612-3.504-0.943-8.465-0.972c-0.332-0.01-0.66-0.01-1.012-0.01
	c-2.062,0-2.908,2.111-3.064,2.918c-0.184,0.973-0.797,2.929-1.283,4.409l-0.303-0.39l-0.293-0.37
	c0.439-1.381,0.926-2.977,1.08-3.794c0.195-0.993,1.256-3.581,3.863-3.581c0.4,0,0.809,0,1.217,0.01
	c0.234-1.401-0.059-2.52-0.816-3.23c-0.936-0.866-5.859-1.323-7.658-1.323c-1.811,0-2.607,1.79-2.764,2.588
	c-0.154,0.788-0.506,2.082-0.758,2.997c-0.875-0.447-1.938-0.808-3.173-1.08v-5.371c0-1.936-3.24-3.512-7.228-3.512
	c-3.999,0-7.239,1.577-7.239,3.512v5.361c-1.188,0.263-2.199,0.604-3.056,1.031c-0.264-0.915-0.603-2.169-0.75-2.938
	c-0.145-0.798-0.952-2.588-2.753-2.588c-1.8,0-6.732,0.458-7.667,1.323c-0.768,0.71-1.05,1.829-0.798,3.23
	c0.41-0.01,0.808-0.01,1.207-0.01c2.609,0,3.669,2.588,3.854,3.581c0.156,0.798,0.623,2.335,1.05,3.678l-0.301,0.379l-0.301,0.38
	c-0.476-1.469-1.061-3.347-1.235-4.292c-0.156-0.807-1.012-2.918-3.065-2.918c-0.35,0-0.681,0-1.012,0.01
	c-4.971,0.029-7.812,0.36-8.474,0.972c-0.896,0.827-1.187,2.189-0.836,3.893c0.525-0.01,1.04-0.01,1.547-0.01
	c3.201,0,4.514,3.19,4.748,4.417c0.223,1.188,1.051,4.135,1.693,6.363l-0.303,0.389l-0.311,0.38
	c-0.663-2.276-1.625-5.644-1.879-6.986c-0.204-1.041-1.294-3.755-3.95-3.755c-0.36,0-0.817,0-1.354,0.01
	c-0.136-0.01-0.271,0-0.408,0h-0.427c-3.289,0.049-8.261,0.253-9.331,1.246c-1.373,1.265-1.645,3.483-0.78,6.228
	c1.139,3.561,4.156,20.11,4.281,20.811c0.009,0,0.924,1.927,6.363,2.793v5.935l-5.176-2.062c-0.497-0.195-1.06,0.049-1.265,0.545
	c-0.136,0.349-0.059,0.739,0.175,1.002c-0.145,0.185-0.233,0.427-0.233,0.682c0,0.632,0.515,1.139,1.149,1.139
	c0.554,0,1.011-0.38,1.128-0.896l2.939,1.178l-4.611,1.838c-0.498,0.193-0.741,0.769-0.546,1.265
	c0.029,0.068,0.059,0.127,0.106,0.185c-0.106,0.176-0.166,0.38-0.166,0.594c0,0.633,0.515,1.148,1.149,1.148
	c0.633,0,1.148-0.516,1.148-1.148c0-0.205-0.058-0.398-0.145-0.563l5.691-2.269l5.575,2.229c-0.049,0.115-0.068,0.242-0.068,0.369
	c0,0.633,0.506,1.148,1.139,1.148c0.632,0,1.148-0.516,1.148-1.148c0-0.156-0.028-0.292-0.079-0.428
	c0.03-0.039,0.04-0.077,0.06-0.117c0.205-0.496-0.04-1.071-0.546-1.265l-4.613-1.838l3.123-1.247
	c0.205,0.282,0.535,0.458,0.905,0.458c0.632,0,1.148-0.516,1.148-1.148c0-0.125-0.019-0.243-0.058-0.35
	c0.126-0.244,0.156-0.545,0.039-0.817c-0.194-0.496-0.769-0.74-1.265-0.545l-5.176,2.062v-5.634c0.195,0.01,0.39,0.021,0.594,0.039
	c0.31,0.146,0.631,0.302,0.973,0.438c0.331,0.146,0.67,0.292,1.031,0.428c2.296,0.905,5.069,1.703,8.095,2.354
	c1.411,0.925,2.676,2.247,2.676,3.989c0,3.901,0,9.087,0,9.087S28.654,100,42.996,100c14.35,0,15.819-3.279,15.819-3.279
	s0-5.186,0-9.087c0-1.624,1.102-2.88,2.385-3.795c0,0,0,0,0.01,0c3.502-0.671,6.703-1.537,9.205-2.578c0.01,0,0.01,0,0.01,0h0.01
	c0,0,0.01,0,0.01-0.01c0.127,0,0.254-0.01,0.381-0.02v4.796l-5.188-2.071c-0.484-0.195-1.061,0.049-1.266,0.545
	c-0.135,0.351-0.057,0.739,0.176,1.002c-0.145,0.185-0.232,0.427-0.232,0.682c0,0.632,0.516,1.139,1.148,1.139
	c0.555,0,1.012-0.38,1.129-0.896l2.939,1.178l-4.613,1.838c-0.496,0.193-0.738,0.769-0.545,1.265
	c0.029,0.068,0.059,0.127,0.107,0.185c-0.107,0.176-0.166,0.38-0.166,0.594c0,0.633,0.516,1.148,1.148,1.148
	c0.631,0,1.148-0.516,1.148-1.148c0-0.205-0.059-0.398-0.145-0.563l5.691-2.269l5.574,2.22c-0.049,0.116-0.066,0.243-0.066,0.379
	c0,0.633,0.506,1.148,1.137,1.148c0.633,0,1.148-0.516,1.148-1.148c0-0.156-0.027-0.292-0.078-0.428
	c0.029-0.039,0.041-0.077,0.061-0.117c0.203-0.496-0.039-1.071-0.535-1.265l-4.611-1.838l3.111-1.247
	c0.207,0.282,0.537,0.458,0.906,0.458c0.631,0,1.146-0.516,1.146-1.148c0-0.125-0.018-0.243-0.057-0.35
	c0.127-0.244,0.154-0.545,0.039-0.817c-0.195-0.496-0.77-0.74-1.256-0.545l-5.186,2.071V80.19c6.148-0.808,7.113-2.948,7.131-2.977
	c0.105-0.623,3.125-17.173,4.252-20.733C85.738,53.736,85.465,51.518,84.102,50.253z M73.518,72.368
	c-0.01,0.049-0.021,0.087-0.039,0.116c-1.236,3.085-15.713,6.85-30.863,6.85c-15.499,0-29.168-4.446-30.463-7.326
	c-0.029-0.068-0.049-0.127-0.06-0.194c-0.019-0.059-0.019-0.116,0-0.185v-0.098l0.039,0.01c0.029-0.098,0.098-0.204,0.215-0.341
	l5.79-7.354l1.839-2.336l5.41-6.869l1.907-2.413l4.486-5.702c0.953-1.158,3.619-2.529,10.849-2.529c5.77,0,9.418,0.856,10.819,2.5
	l4.6,5.828v0.01l1.236,1.576l0.012,0.02l0.01,0.009l6.059,7.697l1.383,1.751l0.012,0.01l0.01,0.01l6.129,7.793l0.107,0.116
	C73.545,71.833,73.566,72.173,73.518,72.368z"/>
</svg>
